<?xml version="1.0" encoding="UTF-8"?>
<svg id="Layer_1" data-name="Layer 1" xmlns="http://www.w3.org/2000/svg" viewBox="0 0 336.38 330.57">
  <defs>
    <style>
      .cls-1 {
        fill: #fff;
      }
    </style>
  </defs>
  <path class="cls-1" d="M234.23,59.57c-25.48,1.54-52.71,14.97-56.67,42.53-.26,1.82.02,5-.38,6.35-.11.38-3.64,4.62-4.12,4.08v-26.69c0-.18.51-2.82.61-3.17.66-2.23,5.66-5,7.6-6.69,22.36-19.57,14.42-44.3-1.07-65.36-1.51-2.05-7.68-9.99-9.64-10.56-.97-.23-1.81.32-2.56.86-3.42,2.46-11.65,14.32-14.03,18.33-11.99,20.21-13.98,40.02,4.79,56.51,2.32,2.04,7.39,4.59,8.12,7.43.38,1.48.44,3.61.47,5.18.18,7.4-.42,14.98-.21,22.3.02.81.36,1.51.45,2.29-.53.57-4.42-4.11-4.54-4.5-.41-1.4.07-3.77-.09-5.38-2.82-27.89-30.8-42.56-56.52-43.53-1.55-.06-4.04-.17-4.03,1.89,4.54,21.5,13.54,44.99,36.68,51.63,5.82,1.67,9.14,1.16,14.85,1.54,7.79.52,12.64,4.02,14.55,11.71l4.04-.44c.78-4.12,2.6-7.82,6.54-9.65,4.5-2.09,9.57-1.24,14.31-1.66,21.77-1.93,35.3-20.54,41.16-39.96.88-2.93,2.85-9.75,3.06-12.52.18-2.26-1.47-2.65-3.39-2.53ZM167.18,16.28l.21,28.57-9.44-11.11c1.84-6.46,6.54-11.49,9.23-17.46ZM167.17,70.5c-4.83-4.17-9.78-9.52-11.78-15.74-1.64-5.1-.46-9.59.03-14.73l.82-.2,11.3,13.33-.37,17.35ZM121.78,71.34c2.99,1.37,6.29,1.87,9.35,3.04,1.07.41,5.44,2.26,6,2.82,1.69,1.71,2.66,8.84,3.55,11.37-5.92-4.95-11.92-9.96-17.47-15.31-.33-.31-1.8-1.56-1.43-1.93ZM115.9,75.32l.62-.62,5.51,4.8,12.78,11.59-12-1.65c-3.52-3.95-4.69-9.4-6.9-14.11ZM126.82,95.3l14.57,1.99,9.8,8.51c-8.75-.85-18.76-3.19-24.38-10.5ZM147.32,94.34l-2.84-11.24c4.55,4.15,7.85,10.28,8.82,16.39l-5.98-5.16ZM172.66,26.13c-.04-3.28-.34-6.58-.44-9.86l9.94,17.02-8.69,10.72c-.76-.16-.78-.83-.85-1.45-.54-4.83.09-11.35.04-16.43ZM172.64,70.49l.43-17.85,11.34-13.25c.51,4.5,1.51,8.17.72,12.7-.71,4.12-2.54,8.23-5.09,11.51-1.23,1.59-4.57,5.07-6.13,6.27-.42.32-.53.82-1.26.63ZM202.68,78.05c4.9-3.13,10.47-5.22,16.19-6.29l-19.33,16.81c.67-3.55,1.61-7.28,3.14-10.52ZM186.51,99.92c1.58-6.37,4.37-12.13,9.04-16.8-.77,2.87-1.46,9.52-2.82,11.89-.4.71-2.33,1.91-3.11,2.57-.4.34-2.65,2.82-3.12,2.34ZM189.03,105.8l9.67-8.19,14.71-2.31c-5.39,7.16-15.78,9.88-24.38,10.5ZM218.07,89.24c-2.03,1.61-9.46,1.17-12.23,1.85l18.49-16.81c-.96,3.16-3.9,13.08-6.26,14.96Z"/>
  <path class="cls-1" d="M308.78,205.67c-5.4,27.07-17.75,52.47-36.72,72.48-53.01,55.91-137.25,59.94-195.42,9.42-23.73-20.61-38.41-45.77-45.78-76.33-.3-1.26-.52-4.16-.92-4.97-.66-1.34-5.88-1.27-7.36-1.26,10,66.1,66.34,118.05,132.62,124.84,58.15,5.96,114.39-24.87,143.2-74.94,8.69-15.1,14.26-32.13,17.52-49.23-.3-1.27-6.04-.39-7.14,0Z"/>
  <path class="cls-1" d="M141.26,21.79c-2.59-.76-17.93,4.21-21.38,5.4-38.24,13.18-71.33,44.42-86.8,81.76-1.61,3.89-4.45,10.57-5.27,14.49-.15.71-.28,1.39-.19,2.12h6.94c.41-.32.71-.68.95-1.15,1.57-3.05,2.71-8.38,4.11-11.86,16.66-41.53,55.05-73.23,98.69-82.79l3.59-7.04-.64-.92Z"/>
  <path class="cls-1" d="M206.27,23.21c-1.11-.29-8.51-2.54-7.95-.06l3.34,6.35c42.2,10.72,77.84,39.03,96.18,78.68,2.63,5.69,4.31,11.78,6.99,17.38h6.3l.55-1.35c-14.47-49.43-55.74-88.07-105.42-101Z"/>
  <g>
    <path class="cls-1" d="M64.78,137.9c-.37-.13-.81-.18-1.31-.19h-12.35c-.62,0-1.12.08-1.53.3-.2.11-.39.27-.51.47-.12.2-.18.44-.18.67v1.53c0,.49.28.92.68,1.22.4.3.94.53,1.62.73h0c.8.22,1.37.51,1.7.83.34.32.47.63.48,1.06,0,.32-.05.64-.15.97h0s-6.15,22.25-6.15,22.25l-6.79-23.15c-.06-.24-.09-.46-.09-.64,0-.26.09-.46.35-.71.26-.24.7-.49,1.34-.69h0c.42-.15.75-.28,1.03-.42.27-.14.48-.27.66-.48h0c.29-.4.34-.87.35-1.49v-1.25c0-.19-.04-.38-.14-.56-.15-.26-.4-.43-.67-.51-.27-.09-.56-.12-.9-.13h-17.11c-.39,0-.73.06-1.03.26-.31.2-.47.58-.46.93v2.23c0,.36.19.7.47.91.27.21.61.34,1.02.45h0c.79.19,1.38.44,1.8.74.41.3.65.62.76,1h0s1.38,4.69,1.38,4.69l-5.3,18.83-6.87-23.17c-.1-.39-.15-.7-.15-.91,0-.34.1-.58.35-.83.24-.24.66-.47,1.28-.64h0c.39-.1.7-.23.96-.44.26-.2.46-.53.45-.88v-2.12c0-.17-.04-.36-.14-.51-.15-.24-.38-.37-.62-.45-.24-.07-.5-.1-.79-.1H2.1c-.58,0-1.05.07-1.45.29-.19.11-.37.27-.48.46-.12.2-.17.43-.17.65v1.64c0,.42.18.83.5,1.1.32.27.73.43,1.22.54h0c.76.16,1.33.41,1.73.72.4.31.64.66.76,1.11h0s14.21,47.85,14.21,47.85c.13.44.36.82.7,1.09.34.26.77.38,1.22.38h2.38c.46,0,.9-.12,1.25-.38.35-.26.59-.65.72-1.09h0s8.4-29.43,8.4-29.43l8.63,29.42h0c.13.43.33.8.64,1.07.3.27.71.4,1.12.4h2.45c.5,0,.95-.11,1.32-.37.36-.26.6-.66.72-1.11h0s13.28-46.83,13.28-46.83c.36-1.22,1.26-2.16,2.86-2.85h0c.51-.21.9-.43,1.21-.69.3-.26.53-.61.53-1.02v-1.36c0-.26-.06-.51-.18-.73-.19-.34-.52-.57-.89-.7Z"/>
    <path class="cls-1" d="M108.03,192.71c.09-.09.15-.22.15-.35v-12.53c0-.21-.04-.42-.14-.61-.15-.29-.42-.49-.72-.6-.3-.11-.63-.15-1.02-.15h-2.37c-.55,0-1.06.12-1.48.39-.43.27-.75.67-.96,1.16h0c-.79,1.84-1.51,3.31-2.15,4.41-.64,1.1-1.23,1.83-1.67,2.17-.89.71-2.72,1.14-5.43,1.13h-6.95v-21.04h1.71c1.32,0,2.32.18,2.99.49.28.13.6.4.92.86.33.46.66,1.09.98,1.88h0c.19.47.36.84.52,1.14.17.3.3.51.51.69.39.29.87.36,1.47.37h2.54c.49,0,.91-.07,1.26-.29.17-.11.33-.26.42-.45.1-.19.14-.39.14-.6v-13.12c0-.21-.05-.43-.15-.62-.16-.29-.44-.49-.74-.6-.3-.11-.65-.15-1.05-.15h-2.43c-.29,0-.52,0-.72.03-.1.01-.18.02-.27.04-.09.02-.17.04-.28.11-.13.09-.18.16-.24.24-.16.23-.33.56-.56,1.06h0c-.44,1-.83,1.79-1.18,2.36-.35.57-.66.92-.84,1.03-.41.28-1.44.5-2.98.49h-2.04v-18.7h6.45c1.55,0,2.82.16,3.81.46.99.3,1.68.74,2.12,1.29.99,1.22,1.69,2.7,2.08,4.44h0c.07.42.31.81.67,1.04.37.24.81.32,1.31.33h2.04c.4,0,.72-.01.99-.04.27-.04.46-.06.69-.19.25-.17.34-.4.4-.61.06-.22.08-.47.08-.77v-10.24c0-.23-.1-.47-.25-.62-.24-.23-.52-.33-.86-.41-.34-.07-.73-.1-1.21-.1-.36,0-1.16.04-2.45.11h0c-1.43.07-2.41.1-2.9.1h-28.37c-.48,0-.88.05-1.22.22-.17.08-.33.21-.44.38-.11.17-.17.37-.17.57v1.67c0,.42.19.81.49,1.1.3.3.69.54,1.19.75h0c.63.28,1.06.61,1.33.98.27.37.41.77.41,1.28v41.22c0,.49-.11.88-.32,1.21-.21.33-.53.61-1,.85h0c-.63.3-1.11.59-1.47.91-.18.16-.33.32-.44.51-.11.19-.18.4-.18.63v1.53c0,.2.04.41.14.6.15.28.41.48.7.59.29.11.61.15.98.15h37.8c.13,0,.26-.05.35-.15Z"/>
    <path class="cls-1" d="M156.74,193.55c3.56,0,6.8-.33,9.71-.99,2.89-.65,4.78-1.18,5.78-1.61.49-.22.89-.45,1.18-.74.29-.28.5-.65.5-1.06v-1.25c0-.29-.09-.58-.26-.82-.16-.23-.39-.41-.65-.55h0c-.21-.13-.35-.27-.44-.43-.09-.16-.14-.35-.14-.61v-9.75c0-.96.09-2.2.27-3.69.11-.63.17-1.02.17-1.29,0-.26-.03-.49-.13-.72-.09-.22-.27-.43-.49-.54-.23-.12-.47-.16-.79-.2-.32-.04-.71-.05-1.18-.05h-13.91c-.51,0-.93.06-1.29.27-.18.1-.34.25-.44.43-.11.18-.15.39-.15.6v1.46c0,.38.21.73.5.94.29.22.65.36,1.09.48h0c1.62.42,2.64.94,3.01,1.37.39.42.65,1.23.64,2.47v7.52c0,1.38-.37,2.3-1.05,2.92-.68.62-1.76.97-3.31.97-1.45,0-2.68-.28-3.72-.81-1-.51-1.9-1.51-2.68-3.03-.77-1.52-1.47-3.84-2.05-6.93-.58-3.07-.87-7.02-.87-11.82,0-4.57.3-9.16.91-13.76.3-2.29.7-4.16,1.2-5.59.49-1.43,1.08-2.41,1.7-2.96,1.34-1.19,3.02-1.78,5.13-1.79,2.2,0,4.02.64,5.54,1.91,1.52,1.27,2.74,3.22,3.64,5.86h0c.24.69.44,1.23.6,1.61.08.19.15.35.21.47l.1.17.16.18c.12.1.23.13.33.16.31.08.7.1,1.28.11h2.32c.52,0,.97-.09,1.33-.35.37-.26.56-.72.55-1.16v-11.49c0-.22-.05-.45-.16-.65-.17-.3-.45-.51-.77-.63-.32-.12-.69-.16-1.11-.16h-2.15c-.4,0-.85.08-1.36.23h0c-.6.19-1.03.27-1.12.26-.36,0-.93-.1-1.68-.33-2.69-.8-5.18-1.21-7.48-1.21-4.6,0-8.95,1.57-12.97,4.66-4.02,3.09-6.88,6.93-8.53,11.48-1.64,4.52-2.46,9.26-2.46,14.21,0,8.65,2.1,15.22,6.39,19.63,4.29,4.41,10.7,6.58,19.11,6.58Z"/>
    <path class="cls-1" d="M178.01,192.72c.27.1.57.13.91.13h17.22c.52,0,.95-.06,1.32-.26.18-.1.34-.25.45-.43.11-.18.16-.4.16-.61v-1.57c0-.42-.2-.82-.51-1.11-.31-.3-.72-.53-1.23-.74h0c-.65-.28-1.09-.61-1.38-.98-.28-.37-.42-.77-.42-1.28v-18.33c1.2.08,2.19.37,2.95.86.82.51,1.69,1.8,2.48,3.87h0s7.55,19.15,7.55,19.15h0c.18.47.51.86.95,1.1.44.24.96.34,1.55.34h11c.45,0,.84-.06,1.17-.27.16-.1.31-.25.4-.43.09-.18.13-.38.13-.57v-1.98c0-.24-.07-.49-.22-.69-.15-.2-.35-.34-.58-.43h-.01c-1.1-.43-1.87-.88-2.28-1.3-.4-.39-.9-1.31-1.4-2.69l-4.03-11.04h0c-.87-2.34-2.13-4.16-3.78-5.4-1.31-.98-3.08-1.86-5.3-2.65,4.31-1.04,7.66-2.57,10.01-4.64,2.67-2.34,4.03-5.39,4.02-9,0-2.27-.56-4.31-1.68-6.07-1.12-1.76-2.79-3.24-4.98-4.43-4.39-2.38-10.68-3.54-18.89-3.54h-14.46c-.52,0-.95.06-1.32.26-.18.1-.34.24-.45.43-.11.18-.16.4-.16.61v1.53c0,.43.2.83.51,1.13.31.3.72.54,1.23.76h0c.65.28,1.09.61,1.38.97.28.36.42.76.42,1.25v41.22c0,.49-.14.89-.42,1.26-.28.37-.73.71-1.38,1h0c-.51.22-.92.46-1.22.76-.3.29-.51.67-.51,1.09v1.64c0,.19.04.39.14.56.15.27.4.44.67.54ZM194.55,142.94c3.62.05,6.29.66,7.97,1.77.84.55,1.49,1.41,1.94,2.63.45,1.22.68,2.8.68,4.73,0,1.98-.23,3.64-.68,4.98-.45,1.34-1.1,2.34-1.96,3.07-1.66,1.4-4.31,2.17-7.95,2.24v-19.41Z"/>
    <path class="cls-1" d="M247.3,136.99c-7.36,0-13.09,2.59-16.98,7.77-3.89,5.16-5.81,12.1-5.81,20.78,0,8.67,1.9,15.53,5.76,20.52,3.87,5.01,9.8,7.51,17.59,7.5,6.63,0,12.04-2.4,16.08-7.17,4.06-4.79,6.05-11.9,6.05-21.27,0-9.18-2.01-16.19-6.11-20.97-4.08-4.76-9.66-7.16-16.58-7.15ZM254.26,176.16c-.29,3-.68,5.4-1.16,7.21-.48,1.8-1.06,3-1.64,3.55-1.31,1.27-2.69,1.87-4.2,1.88-1.32,0-2.42-.33-3.38-.97-.95-.64-1.76-1.62-2.41-2.96-1.3-2.67-2-7.31-1.99-13.84,0-5.25.23-10.31.69-15.19.46-4.87,1-8.16,1.57-9.74.58-1.62,1.37-2.67,2.32-3.24,1.01-.6,2.13-.9,3.41-.9,1.53,0,2.73.4,3.66,1.16.88.7,1.85,2.53,2.71,5.43.86,2.87,1.3,6.56,1.3,11.07,0,5.01-.29,10.53-.88,16.55h0Z"/>
    <path class="cls-1" d="M336.2,138.6c-.19-.34-.52-.57-.89-.7-.37-.13-.81-.18-1.31-.19h-12.35c-.62,0-1.12.08-1.53.3-.2.11-.39.27-.51.47-.12.2-.18.44-.18.67v1.53c0,.49.28.92.68,1.22.4.3.94.53,1.62.73h0c.8.22,1.37.51,1.7.83.34.32.47.63.48,1.06,0,.32-.05.64-.15.97h0s-6.15,22.25-6.15,22.25l-6.79-23.15c-.06-.24-.09-.46-.09-.64,0-.26.09-.46.35-.71.26-.24.7-.49,1.34-.69h0c.42-.15.75-.28,1.03-.42.27-.14.48-.27.66-.48h0c.29-.4.34-.87.35-1.49v-1.25c0-.19-.04-.38-.14-.56-.15-.26-.4-.43-.67-.51-.27-.09-.56-.12-.9-.13h-17.11c-.39,0-.73.06-1.03.26-.31.2-.47.58-.46.93v2.23c0,.36.19.7.47.91.27.21.61.34,1.02.45h0c.79.19,1.38.44,1.8.74.41.3.65.62.76,1h0s1.38,4.69,1.38,4.69l-5.3,18.83-6.87-23.17c-.1-.39-.15-.7-.15-.91,0-.34.1-.58.35-.83.24-.24.66-.47,1.28-.64h0c.39-.1.7-.23.96-.44.26-.2.46-.53.45-.88v-2.12c0-.17-.04-.36-.14-.51-.15-.24-.38-.37-.62-.45-.24-.07-.5-.1-.79-.1h-16.12c-.58,0-1.05.07-1.45.29-.2.11-.37.27-.48.46-.12.2-.17.43-.17.65v1.64c0,.42.18.83.5,1.1.32.27.73.43,1.22.54.76.16,1.33.41,1.73.72.4.31.64.66.76,1.11h0s14.21,47.85,14.21,47.85c.13.44.36.82.7,1.09.34.26.77.38,1.22.38h2.38c.46,0,.9-.12,1.25-.38.35-.26.59-.65.72-1.09h0s8.4-29.43,8.4-29.43l8.63,29.42h0c.13.43.33.8.64,1.07.3.27.71.4,1.12.4h2.45c.5,0,.95-.11,1.32-.37.36-.26.6-.66.72-1.11h0s13.28-46.83,13.28-46.83c.36-1.22,1.26-2.16,2.86-2.85h0c.51-.21.9-.43,1.21-.69.3-.26.53-.61.53-1.02v-1.36c0-.26-.06-.51-.18-.73Z"/>
    <path class="cls-1" d="M143.61,205.22c0-.21-.06-.44-.19-.62-.19-.28-.48-.43-.8-.52-.32-.09-.68-.13-1.11-.13h-13.75c-.47,0-.87.07-1.22.28-.17.11-.32.26-.41.44-.1.18-.14.38-.14.58v1.85c0,.2.06.4.17.56.16.25.39.42.66.57.27.14.59.26.97.36h0c.78.22,1.34.49,1.67.76.33.28.43.5.43.78,0,.45-.11.94-.34,1.47l-6.79,14.52-7.62-15.97v-.02c-.13-.23-.17-.41-.17-.53l.07-.22c.08-.12.27-.29.6-.45.33-.16.79-.32,1.37-.45h0c.55-.12.98-.27,1.31-.48.17-.11.32-.23.43-.4.12-.16.19-.37.19-.58v-1.67c0-.22-.05-.45-.16-.64-.17-.3-.46-.5-.78-.61-.32-.11-.68-.15-1.11-.16h-17.83c-.41,0-.77.07-1.08.29-.31.22-.48.61-.47.98v1.74c0,.41.18.81.48,1.08.3.28.69.45,1.15.58h0c1.39.41,2.36,1.22,3,2.49l10.98,23.45v17.55c0,.49-.14.89-.42,1.26-.28.37-.73.71-1.38,1h0c-.51.22-.92.46-1.22.76-.3.29-.51.67-.51,1.09v1.64c0,.19.04.39.14.56.15.27.4.44.67.54.27.1.57.13.91.13h17.22c.52,0,.95-.06,1.32-.26.18-.1.34-.24.45-.43.11-.18.16-.4.16-.61v-1.57c0-.42-.19-.81-.49-1.1-.3-.3-.7-.54-1.19-.75h0c-.66-.28-1.13-.62-1.42-.98-.29-.37-.43-.77-.43-1.27v-17.54l10.93-23.19c.54-1.12,1.75-2.03,3.78-2.66h0c.56-.16,1.01-.35,1.36-.61.34-.25.6-.64.6-1.09v-1.81Z"/>
    <path class="cls-1" d="M166.23,203.23c-7.36,0-13.09,2.59-16.98,7.77-3.89,5.16-5.81,12.1-5.81,20.78,0,8.67,1.9,15.53,5.76,20.52,3.87,5.01,9.8,7.51,17.59,7.5,6.63,0,12.04-2.4,16.08-7.17,4.06-4.79,6.05-11.9,6.05-21.27,0-9.18-2.01-16.19-6.11-20.97-4.08-4.76-9.66-7.16-16.58-7.15ZM173.18,242.4c-.29,3-.68,5.4-1.16,7.21-.48,1.8-1.06,3-1.64,3.55-1.31,1.27-2.69,1.87-4.2,1.88-1.32,0-2.42-.33-3.38-.97-.95-.64-1.76-1.62-2.41-2.96-1.3-2.67-2-7.31-1.99-13.84,0-5.25.23-10.31.69-15.19.46-4.87,1-8.16,1.57-9.74.58-1.62,1.37-2.67,2.32-3.24,1.01-.6,2.13-.9,3.41-.9,1.53,0,2.73.4,3.66,1.16.88.7,1.85,2.53,2.71,5.43.86,2.87,1.3,6.56,1.3,11.07,0,5.01-.29,10.53-.88,16.55h0Z"/>
    <path class="cls-1" d="M236.96,204.09c-.27-.1-.57-.13-.91-.13h-12.31c-.52,0-.95.06-1.32.26-.18.1-.34.24-.45.43-.11.18-.16.4-.16.61v1.53c0,.42.2.81.51,1.11.31.3.72.55,1.23.77.65.28,1.1.61,1.38.97.28.36.42.76.42,1.25v34.93c0,2.75-.67,4.73-1.94,6.02-1.27,1.29-3.19,1.97-5.89,1.97-2.47,0-4.23-.58-5.37-1.67-1.14-1.09-1.75-2.73-1.75-5.06v-36.18c0-.49.14-.89.42-1.25.28-.36.73-.69,1.38-.97.52-.23.92-.47,1.23-.77.3-.3.51-.69.51-1.11v-1.6c0-.19-.04-.39-.14-.56-.15-.27-.4-.44-.67-.54-.27-.1-.57-.13-.91-.13h-17.22c-.52,0-.95.06-1.32.26-.18.1-.34.24-.45.43-.11.18-.16.4-.16.61v1.53c0,.42.2.81.51,1.11.31.3.72.55,1.23.77.65.28,1.1.61,1.38.97.28.36.42.76.42,1.25v35.8c0,1.96.45,3.75,1.36,5.34.91,1.6,2.27,2.99,4.05,4.19,3.56,2.39,8.1,3.56,13.58,3.56,5.48,0,9.97-1.19,13.42-3.6,3.47-2.41,5.25-5.86,5.24-10.15v-35.14c0-.49.14-.89.42-1.25.28-.36.73-.69,1.38-.97h0c.51-.23.92-.47,1.23-.77.3-.3.51-.69.51-1.11v-1.6c0-.19-.04-.39-.14-.56-.15-.27-.4-.44-.67-.54Z"/>
  </g>
  <g>
    <path class="cls-1" d="M74.58,264.15c-1.57,1.32-2.89,2.22-3.96,2.69-1.92.82-5.23.63-6.97.33-.21-.03-.34-.08-.41-.16-.06-.07-.08-.17-.05-.31.07-.44.17-1.1.29-2,0-.46.01-1.15.04-2.08.02-.13.05-.22.1-.26.06-.05.14-.06.27-.05.8.12,2.82.63,3.08.63.5,0,1.03-.13,1.58-.37.76-.34,1.83-1.09,3.22-2.27,3.22-2.72,5.62-4.95,7.2-6.67.05-.07.09-.11.12-.14.11-.09.25-.04.42.16.17.2.41.5.72.91.31.41.55.71.72.91.16.19.4.46.74.81.33.35.58.62.73.81.15.18.15.34-.01.48-.86.73-2.17,1.83-3.92,3.28-1.75,1.46-3.06,2.55-3.93,3.29Z"/>
    <path class="cls-1" d="M85.87,284.1c-.17.19-.35.2-.52.04l-3.18-2.97c-.17-.16-.16-.35.03-.56.56-.61,1.44-1.49,2.61-2.66,1.17-1.17,2.05-2.06,2.61-2.66.16-.17.22-.29.18-.35-.1-.03-1.37.53-3.8,1.66-1.43.66-2.85,1.33-4.28,1.98-.19.08-.34.09-.45.03-.04-.02-.16-.13-.37-.33-.31-.29-.44-.52-.39-.7.29-.96.76-2.32,1.41-4.07.68-1.86,1.15-3.21,1.43-4.07.02-.04.02-.1.01-.17-.09.01-.19.08-.31.2-.55.59-1.36,1.48-2.42,2.69-1.07,1.2-1.88,2.1-2.42,2.69-.2.21-.38.24-.55.08l-3-2.8c-.12-.11-.18-.2-.17-.26,0-.06.06-.14.15-.24.61-.65,1.56-1.61,2.84-2.86,1.29-1.25,2.23-2.2,2.84-2.86.65-.7,1.84-2.03,3.56-4,.46-.5,1.12-1.27,1.99-2.3l.13-.16c.11-.13.29-.07.55.17.33.31.83.76,1.51,1.35s1.18,1.05,1.51,1.35c.07.06.04.27-.07.64l-2.75,8.22c-.18.56-.2.9-.08,1.02.07.06.42-.03,1.05-.28,1.78-.69,4.45-1.76,8-3.18.32-.14.54-.15.66-.04.17.16.43.42.76.76s.59.6.77.77c.15.14.39.34.73.6.34.26.58.46.73.6.18.17.2.32.07.47-.66.71-1.67,1.74-3.04,3.1-1.36,1.36-2.38,2.39-3.04,3.1-.61.65-1.5,1.66-2.66,3.02s-2.05,2.36-2.66,3.01Z"/>
    <path class="cls-1" d="M108.07,284.48c-.2.29-.43.51-.69.65-2.09,1.14-4.56,2.15-7.42,3.04-.41.13-.7.32-.85.55-.25.36-.6.91-1.05,1.65s-.8,1.29-1.04,1.64c-.08.12-.16.18-.23.17-.02,0-.12-.05-.31-.14-.27-.13-.89-.52-1.87-1.19-.98-.67-1.59-1.12-1.83-1.35-.17-.16-.2-.32-.08-.49.25-.36.65-.88,1.22-1.57s.97-1.22,1.22-1.58c.15-.22.23-.5.24-.87-.02-1.72.03-4.29.15-7.72.03-.37.1-.64.21-.81.28-.41.68-1.03,1.19-1.87.52-.84.92-1.46,1.19-1.87.15-.22.3-.29.43-.2.41.28,1.03.73,1.84,1.34.82.61,1.43,1.06,1.85,1.35.16.11.2.21.13.31-.24.34-.61.85-1.12,1.52s-.88,1.18-1.12,1.53c-.14.2-.19.91-.15,2.13.04.96.09,1.72.15,2.27.5-.13,1.2-.37,2.11-.7,1.14-.41,1.77-.7,1.88-.87.23-.34.56-.87.98-1.59.42-.72.75-1.25.98-1.59.1-.14.18-.2.26-.18l.25.17c.41.28,1.03.68,1.87,1.2.84.52,1.47.93,1.88,1.21.13.09.1.29-.1.58-.25.36-.61.9-1.09,1.63-.48.73-.85,1.28-1.1,1.64Z"/>
    <path class="cls-1" d="M127.47,293.37c-.04.08-.13.09-.28.02-.56-.25-1.39-.68-2.49-1.29-1.1-.61-1.93-1.04-2.5-1.29-.72-.32-1.15-.48-1.29-.48-.33,0-.63.3-.9.89-.32.71-.32,1.2,0,1.45.13.1.35.22.66.36.52.23,1.3.55,2.36.95,1.05.4,1.84.72,2.36.95.25.11.08.83-.51,2.14-.51,1.15-.85,1.79-1.02,1.94-.11.11-.24.13-.39.07.1.04-.13-.09-.67-.4-.77-.43-1.96-1.01-3.59-1.74-.52-.23-.82-.36-.89-.39-.41-.11-.67-.04-.79.23-.47,1.06-.98,2.31-1.51,3.73-.48,1.29-.7,1.86-.63,1.72-.09.19-.37.2-.86.02.13.05-.2-.1-1-.46-1.4-.63-2.28-1.08-2.64-1.36-.19-.15-.25-.31-.17-.49.37-.83.96-2.07,1.76-3.71.8-1.64,1.39-2.88,1.76-3.71.44-.99.95-2.25,1.53-3.79.9-2.37,1.38-3.65,1.45-3.83l.05-.14c.08-.19.23-.23.46-.13.55.25,1.39.63,2.5,1.16s1.95.91,2.51,1.16c.6.27,1.52.62,2.76,1.07s2.16.8,2.76,1.07c.37.17.52.41.42.74-.14.32-.34.81-.6,1.47-.06.17-.15.51-.28,1.02-.11.45-.21.78-.31,1Z"/>
    <path class="cls-1" d="M140.98,310.98c-.04.14-.17.21-.38.21-.25,0-1-.19-2.22-.55-1.13-.33-1.84-.57-2.15-.73-.25-.13-.37-.36-.35-.68.06-1.21.03-1.88-.1-2-.11-.09-1.16-.43-3.14-1.01-1.34-.39-2.06-.56-2.17-.52-.17.09-.44.46-.82,1.13-.34.61-.62.91-.85.9-.29-.01-1.19-.25-2.72-.69-1.21-.35-1.77-.64-1.71-.87.06-.2,1.68-2.46,4.87-6.77,3.45-4.66,5.34-7.22,5.65-7.7.18-.27.34-.39.46-.35.21.06.54.18.97.35s.76.29.98.35c.21.06.53.14.95.23.42.09.73.17.94.23.15.04.25.21.3.51.15.94.44,4.1.9,9.49.45,5.42.65,8.24.59,8.45ZM135.75,297.78c-.27.3-.77.97-1.5,2.01-.78,1.1-1.21,1.76-1.27,1.98-.04.14.17.29.64.44.24.09.64.21,1.2.38.52.15.83.17.92.06.03-.03.05-.09.07-.16.08-.26.1-1.03.08-2.31-.02-1.24-.07-2.04-.15-2.4Z"/>
    <path class="cls-1" d="M159.41,308.61c-.21,1.5-.85,2.67-1.92,3.52-1.22.98-3.17,1.29-5.84.91-.2-.03-.5-.07-.88-.13-.39-.05-.68-.09-.87-.12-3-.42-4.77-.73-5.33-.93-.23-.08-.33-.22-.3-.43.12-.87.35-2.18.7-3.93.35-1.75.58-3.06.7-3.94.13-.94.33-2.72.59-5.33.07-.67.16-1.67.28-3.02v-.17c.02-.16.17-.23.43-.23.27,0,1.21.12,2.83.34,2.59.36,4.11.58,4.54.66,1.99.35,3.42.88,4.29,1.59,1.15.95,1.6,2.34,1.34,4.17-.07.48-.28.97-.65,1.46-.26.35-.59.7-.99,1.03-.35.29-.52.42-.52.4,0,.06.08.16.28.31.52.4.9.98,1.13,1.73.2.67.26,1.37.16,2.08ZM154.54,307.88c.1-.73-.13-1.27-.71-1.61-.37-.22-.99-.39-1.87-.51-1.05-.15-1.62-.19-1.72-.12-.1.06-.21.56-.34,1.47-.13.96-.15,1.5-.06,1.61.09.12.67.25,1.73.4.88.12,1.5.14,1.88.05.63-.15.99-.58,1.09-1.29ZM155.12,301.02c.1-.7-.19-1.21-.85-1.54-.37-.18-1.01-.33-1.9-.45-.88-.12-1.33-.12-1.34.01-.02.15-.07.39-.14.7-.07.31-.12.54-.14.69-.11.81-.11,1.28.02,1.39.08.09.59.19,1.53.33,1.75.24,2.69-.13,2.83-1.13Z"/>
    <path class="cls-1" d="M177.15,313.82c0,.06-.08.1-.24.13-.31.05-1.09.09-2.35.11-1.07.02-1.8,0-2.19-.04-.18-.02-.28-.04-.31-.06-.05-.02-.11-.1-.18-.24-.13-.32-.32-.79-.57-1.42-.33-.81-.85-2.02-1.56-3.6-.15-.32-.5-.49-1.03-.51.25.01-.18.03-1.27.05-.12,0-.18.21-.17.63,0,.56.07,1.39.2,2.5.12,1.11.19,1.94.2,2.5,0,.14-.03.22-.11.25-.11,0-.23.02-.34.03-.48.04-1.24.07-2.26.09-1.17.02-1.88,0-2.12-.04-.24-.04-.36-.17-.36-.38-.01-.9,0-2.26.06-4.09s.08-3.19.06-4.1c-.06-3.47-.18-6.17-.37-8.12v-.17c-.03-.14.1-.24.37-.29s1.52-.12,3.76-.21c1.52-.06,2.73-.09,3.63-.11,1.87-.03,3.4.37,4.6,1.19,1.35.93,2.04,2.29,2.08,4.09.02,1.2-.14,2.16-.47,2.88s-.96,1.42-1.87,2.11c-.19.13-.28.26-.28.37,0,0,.52,1.01,1.55,3.06s1.55,3.18,1.56,3.39ZM171.8,302.88c-.02-1-.36-1.69-1.02-2.06-.51-.29-1.31-.42-2.39-.4-.78.01-1.19.14-1.24.38-.04.28-.06,1.08-.03,2.41,0,.19.01.47.03.84.01.37.02.64.03.82,0,.04.13.08.4.12.5.07,1.03.09,1.58.08,1.8-.03,2.68-.76,2.66-2.19Z"/>
    <path class="cls-1" d="M184.06,304.11c.1.96.27,2.41.52,4.34.25,1.93.42,3.38.52,4.34.02.16,0,.27-.08.32-.02,0-.12.04-.31.08-.52.12-1.23.22-2.12.32-1.19.12-1.95.17-2.29.13-.24-.02-.37-.14-.39-.34.01.13-.02-.59-.11-2.17-.19-3.32-.34-5.5-.44-6.54-.09-.87-.25-2.18-.49-3.92-.24-1.74-.4-3.05-.49-3.92-.02-.18.07-.28.25-.3.25-.03.64-.05,1.15-.08.51-.03.89-.05,1.15-.08.25-.03.62-.08,1.12-.15s.86-.12,1.12-.15c.24-.02.36.05.38.23.09.87.18,2.19.26,3.94.08,1.76.17,3.07.26,3.94Z"/>
    <path class="cls-1" d="M202.67,307.11c.03.13-.02.31-.15.56-1.12,2.06-2.9,3.35-5.35,3.86-2.51.52-4.72.08-6.63-1.31-1.86-1.34-3.05-3.27-3.57-5.8-.5-2.44-.19-4.67.95-6.68,1.18-2.1,2.97-3.4,5.37-3.9,2.6-.54,4.81-.16,6.62,1.13.2.14.31.28.34.42.03.15-.13.78-.49,1.87-.36,1.1-.59,1.72-.71,1.87-.05.08-.12.13-.22.15-.04,0-.27-.11-.7-.36-.51-.3-1-.51-1.46-.64-.7-.19-1.39-.21-2.08-.07-1.18.24-2.03.88-2.56,1.91-.48.95-.6,2.03-.35,3.24.25,1.22.79,2.18,1.61,2.87.89.75,1.93,1.01,3.11.77.7-.14,1.33-.43,1.89-.87.37-.29.73-.65,1.08-1.1.29-.38.46-.57.5-.58.08-.02.17.01.27.08.16.12.61.55,1.36,1.29.77.77,1.17,1.2,1.18,1.29Z"/>
    <path class="cls-1" d="M221.71,303.09c.05.14-.01.27-.18.39-.21.15-.92.44-2.12.87-1.1.4-1.82.62-2.16.68-.28.04-.51-.07-.69-.34-.66-1.02-1.08-1.54-1.26-1.56-.14,0-1.19.34-3.13,1.04-1.31.47-2,.76-2.06.86-.09.17-.08.64,0,1.4.08.69.03,1.1-.16,1.23-.24.16-1.11.51-2.61,1.05-1.18.43-1.81.53-1.89.3-.07-.2-.09-2.98-.06-8.34.04-5.8.05-8.98.03-9.55-.01-.33.04-.51.17-.56.21-.08.54-.17.99-.29.45-.12.78-.22,1-.3.21-.08.51-.2.91-.37.4-.17.69-.3.89-.37.15-.05.33.03.54.24.67.67,2.78,3.05,6.32,7.13,3.56,4.11,5.38,6.27,5.46,6.48ZM209.69,295.51c-.04.4-.05,1.23-.02,2.51.02,1.35.07,2.13.14,2.34.05.14.31.13.78-.02.25-.07.64-.21,1.19-.4.51-.18.77-.35.78-.49,0-.04-.01-.1-.04-.17-.09-.25-.52-.89-1.29-1.91-.75-.99-1.26-1.6-1.53-1.85Z"/>
    <path class="cls-1" d="M229.13,284.38c.08.15.03.26-.13.34-.28.14-1.4.66-3.37,1.54.91,1.86,1.56,3.16,1.94,3.89.45.86,1.15,2.13,2.12,3.82.96,1.69,1.67,2.96,2.12,3.82.07.14.08.24.04.31-.01.03-.11.1-.28.21-.41.29-1.03.65-1.88,1.08-.94.49-1.61.8-2.02.94-.22.07-.38,0-.48-.18-.45-.86-1.08-2.17-1.9-3.92-.82-1.76-1.45-3.06-1.9-3.92-.29-.57-.98-1.82-2.06-3.75-1.38.9-2.5,1.58-3.37,2.03-.12.06-.19.05-.23-.02-.05-.09-.14-.4-.28-.92-.15-.57-.24-.91-.29-1.03-.16-.35-.31-.71-.46-1.07-.23-.57-.29-.89-.16-.96.01,0,.07-.03.16-.07,1.26-.46,3.04-1.29,5.35-2.49.66-.34,1.83-1.04,3.52-2.09.91-.56,1.37-.85,1.37-.85.15-.08.23-.11.27-.1s.08.07.15.19c.1.2.24.47.4.83.19.39.32.67.4.83.09.18.26.44.49.77.23.33.39.58.48.75Z"/>
    <path class="cls-1" d="M237.05,284.43c.52.82,1.33,2.03,2.41,3.64,1.09,1.61,1.89,2.83,2.41,3.64.09.14.11.25.07.32,0,.02-.09.09-.24.21-.42.34-1,.75-1.75,1.24-1.01.64-1.67,1.03-1.98,1.15-.23.09-.4.04-.51-.13.07.11-.29-.52-1.07-1.88-1.66-2.88-2.78-4.76-3.34-5.64-.47-.74-1.21-1.83-2.2-3.28-.99-1.45-1.73-2.54-2.2-3.28-.1-.15-.07-.28.09-.38.21-.14.54-.33.99-.59.45-.26.78-.45.99-.59.21-.14.52-.35.93-.64.41-.29.71-.5.93-.64.2-.13.35-.12.45.04.47.74,1.14,1.88,2.01,3.41s1.53,2.67,2.01,3.41Z"/>
    <path class="cls-1" d="M253.5,272.43c1.61,1.99,2.32,4.17,2.13,6.55-.19,2.41-1.28,4.42-3.27,6.02-1.97,1.59-4.17,2.22-6.58,1.89-2.36-.32-4.34-1.47-5.94-3.45-1.6-1.99-2.31-4.17-2.12-6.55.19-2.44,1.26-4.45,3.24-6.04,1.96-1.58,4.15-2.21,6.58-1.88,2.38.33,4.37,1.48,5.96,3.46ZM249.86,275.34c-.77-.96-1.72-1.54-2.84-1.74-1.17-.21-2.23.06-3.18.82-.9.73-1.37,1.71-1.41,2.94-.04,1.19.31,2.24,1.04,3.16.79.98,1.73,1.56,2.82,1.75,1.15.2,2.21-.09,3.17-.87.9-.73,1.38-1.7,1.43-2.94.04-1.17-.3-2.22-1.04-3.13Z"/>
    <path class="cls-1" d="M260.47,252.78c.69.63,1.7,1.61,3.03,2.93,1.33,1.32,2.35,2.3,3.04,2.94l5.99,5.47c.16.15.17.31,0,.49-.13.15-.33.37-.58.68s-.45.53-.58.68c-.14.16-.37.38-.68.68s-.54.52-.68.67c-.1.11-.32.15-.66.12-.99-.1-3.18-.31-6.6-.62-.94-.1-2.36-.22-4.23-.36-.06,0-.14,0-.23.04,0,.09.04.17.13.25.7.64,1.78,1.58,3.22,2.83,1.44,1.24,2.51,2.19,3.22,2.83.21.19.24.37.09.54l-2.87,3.14c-.16.18-.33.18-.52,0-.65-.6-1.61-1.53-2.88-2.8-1.26-1.27-2.22-2.21-2.88-2.81-.7-.64-1.77-1.56-3.21-2.77-1.44-1.21-2.51-2.13-3.2-2.76-.13-.12-.09-.3.12-.54.32-.35.69-.81,1.11-1.37.1-.13.28-.41.54-.83.22-.35.41-.62.57-.79.07-.07.27-.09.62-.05l7.74.85c.7.08,1.72.18,3.09.3.33.02.54-.02.64-.13.07-.08-.13-.33-.6-.76-.64-.58-1.62-1.42-2.97-2.52-1.34-1.1-2.33-1.94-2.98-2.53-.22-.2-.28-.37-.16-.5.33-.36.82-.92,1.46-1.69.64-.76,1.12-1.32,1.46-1.69.11-.11.25-.09.44.08Z"/>
  </g>
</svg>